<svg width="192" height="200" viewBox="0 0 192 200" fill="none" xmlns="http://www.w3.org/2000/svg">
<path d="M177.638 48.8246L99.5 3.71133C97.3342 2.4609 94.6658 2.46089 92.5 3.71132L14.3616 48.8246C12.1958 50.075 10.8616 52.3859 10.8616 54.8867V145.113C10.8616 147.614 12.1958 149.925 14.3616 151.175L92.5 196.289C94.6658 197.539 97.3342 197.539 99.5 196.289L177.638 151.175C179.804 149.925 181.138 147.614 181.138 145.113V54.8868C181.138 52.3859 179.804 50.075 177.638 48.8246Z" fill="url(#paint0_linear_1805_2)" stroke="white" stroke-width="4"/>
<path fill-rule="evenodd" clip-rule="evenodd" d="M98.4107 26.6699C96.8637 25.7767 94.9577 25.7767 93.4107 26.6699L33.5 61.2593C31.953 62.1525 31 63.8031 31 65.5895V134.768C31 136.555 31.953 138.205 33.5 139.099L93.4107 173.688C94.9577 174.581 96.8637 174.581 98.4107 173.688L158.321 139.099C159.868 138.205 160.821 136.555 160.821 134.768V65.5895C160.821 63.8031 159.868 62.1525 158.321 61.2593L98.4107 26.6699ZM67.5 134V146.5H130V134H142.5V109H130V96.5H80V71.5H117.5V84H142.5V71.5H130V59H67.5V71.5H55V96.5H67.5V109H117.5V134H80V121.5H55V134H67.5Z" fill="white"/>
<defs>
<linearGradient id="paint0_linear_1805_2" x1="6.54545" y1="13.8182" x2="132" y2="161.636" gradientUnits="userSpaceOnUse">
<stop stop-color="#9945FF"/>
<stop offset="1" stop-color="#14F195"/>
</linearGradient>
</defs>
</svg>
