<svg width="1610" height="398" viewBox="0 0 1610 398" fill="none" xmlns="http://www.w3.org/2000/svg">
<path d="M211.718 6.48483C203.364 1.66174 193.072 1.66175 184.718 6.48483L38.0562 91.16C29.7023 95.9831 24.5562 104.896 24.5562 114.543V283.893C24.5562 293.539 29.7023 302.453 38.0562 307.276L184.718 391.951C193.072 396.774 203.364 396.774 211.718 391.951L358.379 307.276C366.733 302.453 371.879 293.539 371.879 283.893V114.543C371.879 104.896 366.733 95.9831 358.379 91.16L211.718 6.48483Z" fill="url(#paint0_linear_1803_2)" stroke="white" stroke-width="4"/>
<path fill-rule="evenodd" clip-rule="evenodd" d="M204.596 49.6585C199.955 46.9791 194.237 46.9791 189.596 49.6585L70.5703 118.378C65.9293 121.058 63.0703 126.009 63.0703 131.368V268.807C63.0703 274.166 65.9293 279.118 70.5703 281.798L189.596 350.517C194.237 353.197 199.955 353.197 204.596 350.517L323.622 281.798C328.263 279.118 331.122 274.166 331.122 268.807V131.368C331.122 126.009 328.263 121.058 323.622 118.378L204.596 49.6585ZM137.674 265.673V290.673H262.674V265.673H287.674V215.673H262.674V190.673H162.674V140.673H237.674V165.673H287.674V140.673H262.674V115.673H137.674V140.673H112.674V190.673H137.674V215.673H237.674V265.673H162.674V240.673H112.674V265.673H137.674Z" fill="white"/>
<path d="M414.75 264.25V245.5H396V226.75H433.5V245.5H489.75V208H414.75V189.25H396V151.75H414.75V133H508.5V151.75H527.25V170.5H489.75V151.75H433.5V189.25H508.5V208H527.25V245.5H508.5V264.25H414.75ZM564.75 264.25V245.5H546V151.75H564.75V133H658.5V151.75H677.25V245.5H658.5V264.25H564.75ZM583.5 245.5H639.75V151.75H583.5V245.5ZM733.5 264.25V245.5H714.75V226.75H696V170.5H714.75V151.75H733.5V133H808.5V151.75H827.25V170.5H789.75V151.75H752.25V170.5H733.5V226.75H752.25V245.5H789.75V226.75H827.25V245.5H808.5V264.25H733.5ZM846 264.25V170.5H864.75V151.75H883.5V133H939.75V151.75H958.5V170.5H977.25V264.25H939.75V226.75H883.5V264.25H846ZM883.5 208H939.75V170.5H921V151.75H902.25V170.5H883.5V208ZM1014.75 264.25V245.5H996V226.75H1033.5V245.5H1089.75V208H1014.75V189.25H996V151.75H1014.75V133H1108.5V151.75H1127.25V170.5H1089.75V151.75H1033.5V189.25H1108.5V208H1127.25V245.5H1108.5V264.25H1014.75ZM1164.75 264.25V245.5H1202.25V151.75H1164.75V133H1277.25V151.75H1239.75V245.5H1277.25V264.25H1164.75ZM1296 264.25V133H1333.5V151.75H1352.25V170.5H1371V189.25H1389.75V133H1427.25V264.25H1389.75V226.75H1371V208H1352.25V189.25H1333.5V264.25H1296ZM1464.75 264.25V245.5H1446V151.75H1464.75V133H1558.5V151.75H1577.25V245.5H1558.5V264.25H1464.75ZM1483.5 245.5H1539.75V151.75H1483.5V245.5Z" fill="white"/>
<defs>
<linearGradient id="paint0_linear_1803_2" x1="13.5148" y1="21.2723" x2="272.549" y2="326.483" gradientUnits="userSpaceOnUse">
<stop stop-color="#9945FF"/>
<stop offset="1" stop-color="#14F195"/>
</linearGradient>
</defs>
</svg>
